<?xml version="1.0" encoding="utf-8"?>
<!-- Generator: Adobe Illustrator 23.0.3, SVG Export Plug-In . SVG Version: 6.00 Build 0)  -->
<svg version="1.1" id="图层_1" xmlns="http://www.w3.org/2000/svg" xmlns:xlink="http://www.w3.org/1999/xlink" x="0px" y="0px"
	 viewBox="0 0 1443 2048" style="enable-background:new 0 0 1443 2048;" xml:space="preserve">
<style type="text/css">
	.st0{fill:#FFFFFF;}
	.st1{font-family:'STZhongsong';}
	.st2{font-size:78.2249px;}
	.st3{font-family:'STXihei';}
	.st4{font-size:60px;}
	.st5{fill:none;}
	.st6{font-family:'SimSun';}
	.st7{font-size:37px;}
</style>
<image style="overflow:visible;enable-background:new    ;" width="1443" height="2048" xlink:href="t0p.jpg" >
</image>
<rect x="300" y="868" class="st0" width="800" height="107"/>
<rect x="570" y="700" class="st0" width="450" height="75"/>
<text transform="matrix(0.9843 0 0 1 559 954.3735)" class="st1 st2">并非文学</text>
<text transform="matrix(1 0 0 1 575 760)" class="st3 st4">序章</text>
<rect x="832" y="1050.5" class="st0" width="54.6" height="687.8"/>
<rect x="845.6" y="1050.5" class="st5" width="54.6" height="732.1"/>
<text transform="matrix(1 0 0 1 845.621 1078.7804)" class="st6 st7">三</text>
<text transform="matrix(1 0 0 1 845.621 1123.1804)" class="st6 st7">角</text>
<text transform="matrix(1 0 0 1 845.621 1167.5804)" class="st6 st7">距</text>
<text transform="matrix(1 0 0 1 845.621 1211.9803)" class="st6 st7">离</text>
<text transform="matrix(1 0 0 1 845.621 1256.3804)" class="st6 st7">无</text>
<text transform="matrix(1 0 0 1 845.621 1300.7804)" class="st6 st7">限</text>
<text transform="matrix(1 0 0 1 845.621 1345.1804)" class="st6 st7">为</text>
<text transform="matrix(1 0 0 1 845.621 1389.5803)" class="st6 st7">零</text>
</svg>
